# xmcd
#
# Track frame offsets:
#	150
#	11023
#	21095
#	31774
#	42024
#	52645
#	60706
#	70152
#	81286
#	92808
#	106914
#	120497
#	133035
#	145737
#	156485
#	170638
#	182636
#	194333
#	205696
#	216622
#	227982
#	239918
#	250929
#	263105
#	276823
#	289988
#	303702
#	317397
#	329275
#	340152
#
# Disc length: 4693 seconds
#
# Revision: 1
# Processed by: cddbd v1.5.2PL0 Copyright (c) Steve Scherf et al.
# Submitted via: EasyCDDAExtractor 10.0.3.1
#
DISCID=bc12531e
DTITLE=Various Artist - Country and Western
DYEAR=1900
DGENRE=Country
TTITLE0=Buck Owens - A MAIDEN'S PRAYER
TTITLE1=Buck Owens - ACT NATURALLY
TTITLE2=Buck Owens - CRYIN' TIME
TTITLE3=Buck Owens - I AM A ROCK
TTITLE4=Buck Owens - MEMPHIS TENNESSEE
TTITLE5=Buck Owens - TROUBLE AND ME
TTITLE6=Buck Owens - WE'RE GONNA LET THE GOOD TIME
TTITLE7=Buck Owens - WOULDN'T LIVE IN NEW YORK CITY
TTITLE8=Merle Haggard - ALL OF ME BELONGS TO YOU
TTITLE9=Merle Haggard - BLUE YODEL
TTITLE10=Merle Haggard - BRANDED MAN
TTITLE11=Merle Haggard - CALIFORNIA BLUES
TTITLE12=Merle Haggard - I'M A LONESOME
TTITLE13=Merle Haggard - SOMEBODY
TTITLE14=Tennessee E Ford - BORN  TO LOSE
TTITLE15=Tennessee E Ford - I DON'T HURT ANYMORE
TTITLE16=Tennessee E Ford - MAY YOU NEVER  BE ALONE
TTITLE17=Tennessee E Ford - MORE TIME
TTITLE18=Tennessee E Ford - NO LETTER TODAY
TTITLE19=Tennessee E Ford - SIXTEEN TONS
TTITLE20=Tennessee E Ford - TEARDROPS TONIGHT
TTITLE21=Tennessee E Ford - WORRIED MIND
TTITLE22=Tex Ritter - BLOOD ON THE SADDLE
TTITLE23=Tex Ritter - DUSTY SKIES
TTITLE24=Tex Ritter - HIGH NON
TTITLE25=Tex Ritter - HILL-BILLY HEAVEN
TTITLE26=Tex Ritter - RYE WHISKEY
TTITLE27=Tex Ritter - TEXAS
TTITLE28=Tex Ritter - THE LONG TALL SHADOW
TTITLE29=Tex Ritter - THE WAYWARD WIND
EXTD=
EXTT0=
EXTT1=
EXTT2=
EXTT3=
EXTT4=
EXTT5=
EXTT6=
EXTT7=
EXTT8=
EXTT9=
EXTT10=
EXTT11=
EXTT12=
EXTT13=
EXTT14=
EXTT15=
EXTT16=
EXTT17=
EXTT18=
EXTT19=
EXTT20=
EXTT21=
EXTT22=
EXTT23=
EXTT24=
EXTT25=
EXTT26=
EXTT27=
EXTT28=
EXTT29=
PLAYORDER=
